<?xml version="1.0" encoding="utf-8"?>
<!-- Generator: Adobe Illustrator 21.0.0, SVG Export Plug-In . SVG Version: 6.00 Build 0)  -->
<svg version="1.1" id="Layer_1" xmlns="http://www.w3.org/2000/svg" xmlns:xlink="http://www.w3.org/1999/xlink" x="0px" y="0px"
	 viewBox="0 0 303.3 54.3" style="enable-background:new 0 0 303.3 54.3;" xml:space="preserve">
<style type="text/css">
	.st0{fill:#DDDDDD;stroke:#2E1733;stroke-miterlimit:10;}
</style>
<title>audiowave_gray</title>
<g id="Layer_2">
	<g id="icons">
		<rect x="0.5" y="28.4" class="st0" width="7.8" height="25.4"/>
		<rect x="8.5" y="12.7" class="st0" width="7.8" height="41"/>
		<rect x="16.4" y="12.7" class="st0" width="7.8" height="41"/>
		<rect x="24.4" y="21.4" class="st0" width="7.8" height="32.3"/>
		<rect x="32.3" y="13.6" class="st0" width="7.8" height="40.2"/>
		<rect x="40.3" y="19.7" class="st0" width="7.8" height="34.1"/>
		<rect x="48.3" y="29.3" class="st0" width="7.8" height="24.5"/>
		<rect x="56.2" y="30.1" class="st0" width="7.8" height="23.6"/>
		<rect x="64.2" y="26.6" class="st0" width="7.8" height="27.1"/>
		<rect x="72.1" y="21.4" class="st0" width="7.8" height="32.3"/>
		<rect x="80.1" y="21.4" class="st0" width="7.8" height="32.3"/>
		<rect x="88" y="16.2" class="st0" width="7.8" height="37.6"/>
		<rect x="96" y="23.2" class="st0" width="7.8" height="30.6"/>
		<rect x="104" y="14.4" class="st0" width="7.8" height="39.3"/>
		<rect x="111.9" y="23.2" class="st0" width="7.8" height="30.6"/>
		<rect x="119.9" y="25.8" class="st0" width="7.8" height="28"/>
		<rect x="127.8" y="28.4" class="st0" width="7.8" height="25.4"/>
		<rect x="135.8" y="22.3" class="st0" width="7.8" height="31.5"/>
		<rect x="143.8" y="19.7" class="st0" width="7.8" height="34.1"/>
		<rect x="151.7" y="17.9" class="st0" width="7.8" height="35.8"/>
		<rect x="159.7" y="16.2" class="st0" width="7.8" height="37.6"/>
		<rect x="167.6" y="2.2" class="st0" width="7.8" height="51.5"/>
		<rect x="175.6" y="0.5" class="st0" width="7.8" height="53.3"/>
		<rect x="183.6" y="2.2" class="st0" width="7.8" height="51.5"/>
		<rect x="191.5" y="23.2" class="st0" width="7.8" height="30.6"/>
		<rect x="199.5" y="4" class="st0" width="7.8" height="49.8"/>
		<rect x="207.4" y="11" class="st0" width="7.8" height="42.8"/>
		<rect x="215.4" y="4" class="st0" width="7.8" height="49.8"/>
		<rect x="223.3" y="9.2" class="st0" width="7.8" height="44.5"/>
		<rect x="231.3" y="23.2" class="st0" width="7.8" height="30.6"/>
		<rect x="239.3" y="7.5" class="st0" width="7.8" height="46.3"/>
		<rect x="247.2" y="9.2" class="st0" width="7.8" height="44.5"/>
		<rect x="255.2" y="11" class="st0" width="7.8" height="42.8"/>
		<rect x="263.1" y="19.7" class="st0" width="7.8" height="34.1"/>
		<rect x="271.1" y="12.7" class="st0" width="7.8" height="41"/>
		<rect x="279" y="16.2" class="st0" width="7.8" height="37.6"/>
		<rect x="287" y="23.2" class="st0" width="7.8" height="30.6"/>
		<rect x="295" y="28.4" class="st0" width="7.8" height="25.4"/>
	</g>
</g>
</svg>
