<?xml version="1.0" encoding="utf-8"?>
<!-- Generator: Adobe Illustrator 21.0.0, SVG Export Plug-In . SVG Version: 6.00 Build 0)  -->
<svg version="1.1" id="Layer_1" xmlns="http://www.w3.org/2000/svg" xmlns:xlink="http://www.w3.org/1999/xlink" x="0px" y="0px"
	 viewBox="0 0 99 99" style="enable-background:new 0 0 99 99;" xml:space="preserve">
<style type="text/css">
	.st0{fill:none;stroke:#DDDDDD;stroke-width:3;stroke-miterlimit:10;}
	.st1{fill:#DDDDDD;}
	.st2{fill:none;stroke:#000000;stroke-miterlimit:10;}
</style>
<title>noise</title>
<g>
	<circle class="st0" cx="49.5" cy="49.5" r="48"/>
	<line class="st0" x1="49.5" y1="8.5" x2="49.5" y2="65"/>
	<path class="st1" d="M45.3,20.7h8.3c2.1,0,3.8,1.7,3.8,3.8v24.3c0,2.1-1.7,3.8-3.8,3.8h-8.3c-2.1,0-3.8-1.7-3.8-3.8V24.6
		C41.5,22.4,43.2,20.7,45.3,20.7z"/>
	<line class="st2" x1="54" y1="28" x2="45" y2="28"/>
	<line class="st2" x1="54" y1="36.7" x2="45" y2="36.7"/>
	<line class="st2" x1="54" y1="45.5" x2="45" y2="45.5"/>
	<line class="st0" x1="28.7" y1="22.9" x2="28.7" y2="79.4"/>
	<path class="st1" d="M24.5,35.1h8.3c2.1,0,3.8,1.7,3.8,3.8v24.3c0,2.1-1.7,3.8-3.8,3.8h-8.3c-2.1,0-3.8-1.7-3.8-3.8V39
		C20.7,36.8,22.4,35.1,24.5,35.1z"/>
	<line class="st2" x1="33.3" y1="42.4" x2="24.1" y2="42.4"/>
	<line class="st2" x1="33.3" y1="51.1" x2="24.1" y2="51.1"/>
	<line class="st2" x1="33.3" y1="59.9" x2="24.1" y2="59.9"/>
	<line class="st0" x1="70.3" y1="29.3" x2="70.3" y2="85.8"/>
	<path class="st1" d="M66.1,41.5h8.3c2.1,0,3.8,1.7,3.8,3.8v24.3c0,2.1-1.7,3.8-3.8,3.8h-8.3c-2.1,0-3.8-1.7-3.8-3.8V45.4
		C62.3,43.2,64,41.5,66.1,41.5z"/>
	<line class="st2" x1="74.8" y1="48.8" x2="65.8" y2="48.8"/>
	<line class="st2" x1="74.8" y1="57.5" x2="65.8" y2="57.5"/>
	<line class="st2" x1="74.8" y1="66.3" x2="65.8" y2="66.3"/>
</g>
</svg>
