<?xml version="1.0" encoding="utf-8"?>
<!-- Generator: Adobe Illustrator 21.0.0, SVG Export Plug-In . SVG Version: 6.00 Build 0)  -->
<svg version="1.1" id="Layer_1" xmlns="http://www.w3.org/2000/svg" xmlns:xlink="http://www.w3.org/1999/xlink" x="0px" y="0px"
	 viewBox="0 0 21 21" style="enable-background:new 0 0 21 21;" xml:space="preserve">
<style type="text/css">
	.st0{fill:#DDDDDD;}
</style>
<title>phone</title>
<g id="Layer_2">
	<g id="ui">
		<g id="main_page">
			<g id="header">
				<path class="st0" d="M16.6,0c0.3-0.1,0.7,0.1,0.9,0.3l2.9,3c0.2,0.1,0.3,0.3,0.4,0.5s0.1,0.5,0.2,0.7v0.1c0,0,0,0.2,0,0.3
					c0,0.5-0.1,0.9-0.1,1.4c-0.1,0.8-0.4,1.6-0.7,2.3c-0.5,1.1-1,2.1-1.7,3.1c-0.9,1.3-1.9,2.6-3.1,3.7c-0.9,0.9-1.9,1.8-2.9,2.6
					c-0.8,0.6-1.7,1.2-2.6,1.6c-0.7,0.4-1.4,0.7-2.2,0.9c-0.5,0.2-1.1,0.3-1.6,0.4C5.6,21,5.3,21,4.9,21H4.5c-0.2,0-0.4-0.1-0.6-0.2
					c-0.2-0.1-0.4-0.2-0.5-0.4l-3-3C0.1,17.3,0,17,0,16.7c0-0.2,0.1-0.4,0.2-0.5c0.1-0.2,0.3-0.3,0.4-0.4l4.5-2.4
					c0.2-0.1,0.5-0.2,0.8-0.1c0.3,0.1,0.5,0.2,0.7,0.4l1.1,1.1l0.1,0.1H8c0.4-0.1,0.7-0.2,1-0.4c0.5-0.2,0.9-0.5,1.3-0.8
					c0.6-0.5,1.2-1,1.8-1.6c0.6-0.5,1.1-1.1,1.6-1.8C14,9.9,14.3,9.5,14.5,9c0.1-0.3,0.2-0.5,0.3-0.8L14.9,8V7.9
					c0-0.1,0-0.1-0.1-0.1l-1.3-1.3c-0.2-0.3-0.4-0.6-0.4-0.9c0-0.2,0-0.4,0.1-0.6l0,0l2.5-4.3C16,0.3,16.2,0.1,16.6,0z"/>
			</g>
		</g>
	</g>
</g>
</svg>
