<?xml version="1.0" encoding="utf-8"?>
<!-- Generator: Adobe Illustrator 21.0.0, SVG Export Plug-In . SVG Version: 6.00 Build 0)  -->
<svg version="1.1" id="Layer_1" xmlns="http://www.w3.org/2000/svg" xmlns:xlink="http://www.w3.org/1999/xlink" x="0px" y="0px"
	 viewBox="0 0 120.3 40" style="enable-background:new 0 0 120.3 40;" xml:space="preserve">
<style type="text/css">
	.st0{fill:#CCCCCC;}
	.st1{fill:#CCCCCC;stroke:#FAFAFA;stroke-width:0.25;stroke-miterlimit:10;}
</style>
<title>social</title>
<g id="Layer_2">
	<g id="ui">
		<g id="main_page">
			<g id="header">
				<path class="st0" d="M27.6,15.4c-0.6,0.3-1.2,0.4-1.8,0.5c0.6-0.4,1.1-1,1.4-1.7c-0.6,0.4-1.3,0.6-2,0.8c-1.2-1.2-3.2-1.2-4.4,0
					c-0.8,0.7-1.1,1.8-0.9,2.8c-2.5-0.1-4.8-1.3-6.4-3.2c-0.8,1.4-0.4,3.2,1,4.1c-0.5,0-1-0.1-1.4-0.4l0,0c0,1.5,1,2.7,2.5,3
					c-0.3,0.1-0.5,0.1-0.8,0.1c-0.2,0-0.4,0-0.6,0c0.4,1.3,1.6,2.1,2.9,2.1c-1.3,1-2.9,1.5-4.6,1.3c4.1,2.6,9.5,1.4,12.1-2.7
					c0.9-1.4,1.4-3.1,1.4-4.7c0-0.1,0-0.3,0-0.4C26.8,16.5,27.3,16,27.6,15.4"/>
				<path class="st0" d="M56.5,17.5h1.5V16c-0.1-0.8,0.1-1.6,0.5-2.3c0.6-0.8,1.5-1.2,2.4-1.1c0.9,0,1.9,0.1,2.8,0.3l-0.4,2.3
					c-0.4-0.1-0.8-0.2-1.3-0.2c-0.6,0-1.1,0.2-1.1,0.8v1.8h2.5l-0.2,2.2H61v7.8h-2.9v-7.8h-1.6V17.5z"/>
				<path class="st0" d="M97.7,26.8c-1.8,0-3.1-1.1-3.1-2.5s1.6-2.5,3.4-2.5c0.4,0,0.8,0.1,1.2,0.2c1,0.7,1.7,1,1.9,1.8
					c0,0.2,0.1,0.3,0.1,0.5C101,25.7,100.2,26.8,97.7,26.8 M98.1,18.8c-1.2,0-2.3-1.3-2.6-2.9s0.6-2.8,1.8-2.8
					c1.4,0.2,2.5,1.4,2.6,2.8C100.1,17.6,99.3,18.8,98.1,18.8 M100.6,21.1c-0.4-0.3-1.2-1-1.2-1.4s0.1-0.7,0.9-1.3
					c0.8-0.5,1.2-1.4,1.3-2.3c0.1-1.1-0.5-2.2-1.5-2.7h1.5l1-0.8h-4.7c-2.1,0-4,1.6-4,3.4c0,1.9,1.5,3.4,3.4,3.3c0.1,0,0.1,0,0.2,0
					h0.4c-0.1,0.3-0.2,0.6-0.2,0.9c0,0.5,0.3,1,0.6,1.3h-0.8c-2.6,0-4.6,1.7-4.5,3.4s2.2,2.7,4.8,2.7c2.9,0,4.6-1.7,4.5-3.4
					C102.3,22.9,101.6,21.7,100.6,21.1 M107.3,18.9h-1.8v-1.8H104v1.8h-1.8v1.5h1.8v1.8h1.5v-1.8h1.8L107.3,18.9z"/>
				<line class="st1" x1="0.1" y1="0" x2="0.1" y2="40"/>
				<line class="st1" x1="40.1" y1="0" x2="40.1" y2="40"/>
				<line class="st1" x1="80.1" y1="0" x2="80.1" y2="40"/>
				<line class="st1" x1="120.1" y1="0" x2="120.1" y2="40"/>
			</g>
		</g>
	</g>
</g>
</svg>
