<?xml version="1.0" encoding="utf-8"?>
<!-- Generator: Adobe Illustrator 21.0.0, SVG Export Plug-In . SVG Version: 6.00 Build 0)  -->
<svg version="1.1" id="Layer_1" xmlns="http://www.w3.org/2000/svg" xmlns:xlink="http://www.w3.org/1999/xlink" x="0px" y="0px"
	 viewBox="0 0 107.8 24.5" style="enable-background:new 0 0 107.8 24.5;" xml:space="preserve">
<style type="text/css">
	.st0{fill:#DDDDDD;}
</style>
<title>social_bottom</title>
<g id="Layer_2">
	<g id="ui">
		<g id="main_page">
			<g id="footer">
				<g>
					<path class="st0" d="M24.3,4.7c-0.9,0.4-1.9,0.7-2.9,0.8c1.1-0.6,1.8-1.6,2.2-2.8c-1,0.6-2.1,1-3.2,1.2C18.4,2,15.3,2,13.3,4
						c-1.2,1.2-1.7,2.9-1.3,4.5C8,8.3,4.2,6.4,1.7,3.2C0.3,5.5,1,8.4,3.2,9.9C2.4,9.9,1.7,9.7,1,9.3l0,0c0,2.4,1.7,4.4,4,4.9
						l-1.3,0.2h-1c0.6,2.1,2.5,3.5,4.7,3.5c-1.8,1.4-4,2.1-6.2,2.1H0c2.3,1.4,4.9,2.2,7.6,2.2c9.2,0,14.2-7.6,14.2-14.3
						c0-0.2,0-0.4,0-0.6C22.8,6.6,23.6,5.7,24.3,4.7"/>
					<path class="st0" d="M46.8,8.1h2.5V5.6c-0.1-1.3,0.2-2.6,0.8-3.8C51,0.6,52.5-0.1,54,0c1.5-0.1,3,0.1,4.5,0.5l-0.6,3.7
						c-0.7-0.2-1.3-0.3-2-0.3c-1,0-1.8,0.4-1.8,1.3v2.9h4l-0.3,3.6H54v12.7h-4.7V11.7h-2.5V8.1z"/>
					<path class="st0" d="M92.2,23.2c-2.9,0-5-1.8-5-4s2.5-4,5.4-4c0.6,0,1.3,0.1,1.9,0.3c1.6,1.1,2.7,1.7,3,2.9
						c0.1,0.3,0.1,0.5,0.1,0.8C97.6,21.4,96.2,23.1,92.2,23.2 M92.8,10.3c-1.9,0-3.8-2.1-4.2-4.7s0.9-4.5,2.9-4.5s3.8,2.1,4.1,4.6
						s-0.9,4.6-2.9,4.5 M96.7,13.9c-0.7-0.5-2-1.6-2-2.3s0.2-1.2,1.4-2.2c1.3-0.9,2.1-2.4,2.1-4c0-1.9-0.9-3.7-2.5-4.3h2.4L100,0
						h-7.5C89.1,0.1,86,2.7,86,5.7c0,3,2.4,5.4,5.4,5.4c0.1,0,0.3,0,0.4,0h0.7c-0.2,0.4-0.4,0.9-0.4,1.4c0,0.8,0.4,1.6,1,2.1h-1.2
						c-4.2,0-7.4,2.7-7.3,5.5s3.6,4.4,7.7,4.4s7.4-2.8,7.3-5.5c0.1-2-0.9-3.9-2.7-4.9 M107.8,10.4h-2.9V7.5h-2.4v2.9h-2.9v2.4h2.9
						v2.9h2.4v-2.9h2.9V10.4z"/>
				</g>
			</g>
		</g>
	</g>
</g>
</svg>
