<?xml version="1.0" encoding="utf-8"?>
<!-- Generator: Adobe Illustrator 21.0.0, SVG Export Plug-In . SVG Version: 6.00 Build 0)  -->
<svg version="1.1" id="Layer_1" xmlns="http://www.w3.org/2000/svg" xmlns:xlink="http://www.w3.org/1999/xlink" x="0px" y="0px"
	 viewBox="0 0 51.5 29.4" style="enable-background:new 0 0 51.5 29.4;" xml:space="preserve">
<style type="text/css">
	.st0{fill:#DDDDDD;}
</style>
<title>soundcloud</title>
<g id="Layer_2">
	<g id="ui">
		<g id="main_page">
			<g id="body">
				<path class="st0" d="M0.6,13.4c-0.1,0-0.2,0.1-0.2,0.2L0,16.4l0.4,2.8c0,0.1,0.1,0.2,0.2,0.2c0.1,0,0.2-0.1,0.2-0.2l0,0l0.5-2.8
					l-0.5-2.9C0.8,13.5,0.7,13.4,0.6,13.4z M2.7,11.8c0-0.1-0.1-0.2-0.2-0.2c-0.1,0-0.2,0.1-0.2,0.2l-0.5,4.6L2.3,21
					c0,0.1,0.1,0.2,0.2,0.2c0.1,0,0.2-0.1,0.2-0.2l0.6-4.5L2.7,11.8z M10.7,7.5c-0.2,0-0.4,0.2-0.4,0.4l-0.4,8.5l0.4,5.5
					c0,0.2,0.2,0.4,0.4,0.4c0.2,0,0.4-0.2,0.4-0.4l0,0l0.5-5.5l-0.5-8.5C11.1,7.7,10.9,7.5,10.7,7.5L10.7,7.5z M6.6,10.5
					c-0.2,0-0.3,0.1-0.3,0.3l-0.4,5.6l0.4,5.4c0,0.2,0.1,0.3,0.3,0.3c0.2,0,0.3-0.1,0.3-0.3l0.5-5.5l-0.5-5.7
					C6.8,10.6,6.7,10.5,6.6,10.5L6.6,10.5z M14.9,22.4c0.3,0,0.5-0.2,0.5-0.5l0.4-5.4L15.4,5.2c0-0.3-0.2-0.5-0.5-0.5
					s-0.5,0.2-0.5,0.5L14,16.4l0.4,5.4C14.3,22.1,14.6,22.3,14.9,22.4C14.8,22.3,14.9,22.3,14.9,22.4L14.9,22.4z M23.5,22.4
					c0.4,0,0.6-0.3,0.6-0.6l0,0l0.3-5.3L24.1,3.4c0-0.4-0.3-0.7-0.7-0.7c-0.4,0-0.7,0.3-0.7,0.7l-0.3,13.1l0.3,5.3
					C22.8,22.1,23.1,22.3,23.5,22.4L23.5,22.4z M19.2,22.4c0.3,0,0.6-0.2,0.6-0.6l0,0l0.3-5.4L19.7,5c0-0.3-0.3-0.5-0.6-0.5
					c-0.3,0-0.5,0.2-0.5,0.5l-0.3,11.4l0.3,5.3C18.6,22,18.8,22.3,19.2,22.4C19.1,22.3,19.1,22.3,19.2,22.4L19.2,22.4z M8.6,22.4
					C8.8,22.4,9,22.2,9,22c0,0,0-0.1,0-0.1l0.5-5.5L9,11.2c0-0.2-0.2-0.3-0.4-0.3c-0.1,0-0.3,0.1-0.3,0.3l-0.4,5.2l0.4,5.5
					C8.3,22.1,8.4,22.3,8.6,22.4L8.6,22.4z M4.5,22c0.1,0,0.2-0.1,0.3-0.3l0.6-5.3L4.8,11c0-0.1-0.1-0.2-0.3-0.3
					c-0.1,0-0.3,0.1-0.3,0.3l-0.5,5.5l0.5,5.3C4.3,21.9,4.4,22,4.5,22z M21.3,4.8c-0.3,0-0.6,0.3-0.6,0.6v0l-0.3,11l0.3,5.3
					c0,0.3,0.3,0.6,0.6,0.6c0.3,0,0.6-0.3,0.6-0.6l0,0l0.3-5.3l-0.3-11C21.9,5.1,21.6,4.9,21.3,4.8z M12.8,22.3
					c0.2,0,0.4-0.2,0.4-0.4l0.4-5.5L13.2,6c0-0.2-0.2-0.4-0.4-0.4c-0.2,0-0.4,0.2-0.4,0.4L12,16.4l0.4,5.5
					C12.4,22.1,12.5,22.3,12.8,22.3z M17.5,21.8L17.5,21.8l0.4-5.4L17.5,4.7c-0.1-0.3-0.4-0.4-0.6-0.4c-0.2,0-0.3,0.2-0.4,0.4
					l-0.3,11.7l0.3,5.4c0.1,0.3,0.4,0.4,0.6,0.4C17.3,22.1,17.5,22,17.5,21.8L17.5,21.8z M45.2,9.7c-0.8,0-1.7,0.2-2.5,0.5
					C42.2,4.4,37.4,0,31.6,0c-1.4,0-2.8,0.3-4.1,0.8c-0.5,0.2-0.6,0.4-0.6,0.7v20.1c0,0.4,0.3,0.7,0.7,0.8h17.6
					c3.5,0,6.3-2.8,6.3-6.3S48.7,9.7,45.2,9.7L45.2,9.7z M25.6,1.5c-0.4,0-0.7,0.3-0.7,0.7c0,0,0,0,0,0l-0.3,14.3l0.3,5.2
					c0,0.4,0.4,0.7,0.8,0.6c0.3,0,0.6-0.3,0.6-0.6l0,0l0.3-5.2L26.3,2.2C26.3,1.8,26,1.5,25.6,1.5z M5.1,26.4c-0.8-0.2-1-0.3-1-0.6
					s0.2-0.4,0.7-0.4c0.4,0,0.8,0.2,1.1,0.5l0.7-0.7c-0.4-0.5-1.1-0.8-1.7-0.7c-0.9,0-1.7,0.5-1.7,1.4s0.6,1.2,1.5,1.4
					s1.1,0.3,1.1,0.6s-0.3,0.5-0.8,0.5c-0.5,0-0.9-0.2-1.2-0.5L3,28.5c0.4,0.6,1.1,0.9,1.8,0.9c1.3,0,1.9-0.6,1.9-1.5
					S5.9,26.6,5.1,26.4z M9.5,24.5c-1.3,0-2.1,1-2.1,2.4s0.8,2.4,2.1,2.4s2.1-1,2.1-2.4S10.8,24.5,9.5,24.5L9.5,24.5z M9.5,28.4
					c-0.8,0-1.1-0.7-1.1-1.5s0.3-1.5,1.1-1.5s1.1,0.6,1.1,1.5S10.2,28.4,9.5,28.4L9.5,28.4z M15.3,27.2c0,0.8-0.4,1.2-1,1.2
					s-1-0.5-1-1.2v-2.6h-0.9v2.6c-0.1,1,0.6,2,1.6,2.1c0.1,0,0.2,0,0.3,0c1.2,0,1.9-0.8,1.9-2.2v-2.6h-0.9L15.3,27.2z M20.3,26.5
					c0,0.3,0,0.9,0,1c-0.1-0.1-0.2-0.4-0.3-0.5l-1.7-2.5h-0.9v4.7h0.9v-2c0-0.3,0-0.9,0-1c0.1,0.1,0.2,0.4,0.3,0.5l1.7,2.6h0.8v-4.8
					h-0.9V26.5z M24,24.5h-1.5v4.7h1.4c1.2,0.1,2.3-0.8,2.4-2.1c0-0.1,0-0.2,0-0.3c0.1-1.2-0.7-2.2-1.8-2.4
					C24.3,24.5,24.2,24.5,24,24.5L24,24.5z M23.9,28.4h-0.5v-2.9h0.5c1,0,1.4,0.5,1.4,1.5c0.1,0.7-0.4,1.4-1.2,1.4
					C24.1,28.4,24,28.4,23.9,28.4L23.9,28.4z M29.2,25.4c0.4,0,0.7,0.2,0.9,0.5l0.9-0.4c-0.3-0.7-1-1.1-1.7-1
					c-1.2,0-2.2,1.1-2.1,2.3c0,0.1,0,0.1,0,0.2c0,1.5,0.8,2.4,2.1,2.4c0.8,0,1.5-0.4,1.8-1.1l-0.8-0.5c-0.2,0.4-0.5,0.6-0.9,0.6
					c-0.7,0-1.1-0.6-1.1-1.5S28.5,25.4,29.2,25.4L29.2,25.4z M32.8,24.5h-0.9v4.7h2.8v-0.9h-1.9L32.8,24.5z M37.1,24.5
					c-1.3,0-2,1-2,2.4s0.8,2.4,2,2.4s2-1,2-2.4S38.4,24.5,37.1,24.5L37.1,24.5z M37.1,28.4c-0.8,0-1.1-0.7-1.1-1.5s0.3-1.5,1.1-1.5
					s1.1,0.6,1.1,1.5S37.9,28.4,37.1,28.4L37.1,28.4z M43,27.2c0,0.8-0.4,1.2-1,1.2s-1-0.5-1-1.2v-2.6h-0.9v2.6
					c-0.2,1,0.6,2,1.6,2.1c0.1,0,0.2,0,0.4,0c1.2,0,1.9-0.8,1.9-2.2v-2.6H43V27.2z M46.6,24.6h-1.5v4.7h1.4c1.2,0.1,2.3-0.8,2.4-2
					c0-0.1,0-0.2,0-0.3c0.1-1.2-0.7-2.2-1.8-2.4C47,24.5,46.8,24.5,46.6,24.6L46.6,24.6z M46.5,28.4h-0.5v-2.9h0.5
					c1,0,1.4,0.5,1.4,1.5c0.1,0.7-0.4,1.4-1.2,1.4C46.7,28.4,46.6,28.4,46.5,28.4L46.5,28.4z"/>
			</g>
		</g>
	</g>
</g>
</svg>
