<?xml version="1.0" encoding="utf-8"?>
<!-- Generator: Adobe Illustrator 21.0.0, SVG Export Plug-In . SVG Version: 6.00 Build 0)  -->
<svg version="1.1" id="Layer_1" xmlns="http://www.w3.org/2000/svg" xmlns:xlink="http://www.w3.org/1999/xlink" x="0px" y="0px"
	 viewBox="0 0 99.2 99.2" style="enable-background:new 0 0 99.2 99.2;" xml:space="preserve">
<style type="text/css">
	.st0{fill:none;stroke:#DDDDDD;stroke-width:2.5;stroke-miterlimit:10;}
	.st1{fill:none;stroke:#DDDDDD;stroke-width:3;stroke-miterlimit:10;}
	.st2{fill:none;stroke:#DDDDDD;stroke-width:2;stroke-miterlimit:10;}
	.st3{fill:#DDDDDD;}
	.st4{fill:none;stroke:#DDDDDD;stroke-width:2;stroke-linecap:round;stroke-miterlimit:10;}
	.st5{fill:none;stroke:#0E0B16;stroke-width:2;stroke-miterlimit:10;}
</style>
<title>mic icon (white)</title>
<line class="st0" x1="65.6" y1="83.4" x2="31.6" y2="83.4"/>
<circle class="st1" cx="49.6" cy="49.6" r="48.1"/>
<line class="st2" x1="48.6" y1="71.9" x2="48.6" y2="83.4"/>
<path class="st3" d="M48.6,10.6L48.6,10.6c7.7,0,13.9,6.2,13.9,13.9v29.1c0,7.7-6.2,13.9-13.9,13.9h0c-7.7,0-13.9-6.2-13.9-13.9
	V24.5C34.7,16.8,40.9,10.6,48.6,10.6z"/>
<path class="st4" d="M67.3,46.3v8.1c0,9.7-8.3,17.5-18.6,17.5S30,64.1,30,54.4v-8.1"/>
<g>
	<line class="st5" x1="49.6" y1="27.3" x2="62.8" y2="27.3"/>
	<line class="st5" x1="49.6" y1="34.7" x2="62.8" y2="34.7"/>
	<line class="st5" x1="49.6" y1="42.2" x2="62.8" y2="42.2"/>
</g>
</svg>
